<svg xmlns="http://www.w3.org/2000/svg" viewBox="0 0 680 680" width="680" height="680">
<style>
    text { font-family: 'Consolas', 'Monaco', 'Courier New', monospace; font-size: 11px; fill: #e2e8f0; }
    .title { font-size: 14px; font-weight: bold; fill: #ffffff; }
    .stereotype { font-size: 10px; fill: #94a3b8; font-style: italic; }
    .class-header { font-size: 11px; font-weight: bold; fill: #ffffff; }
    .arrow-label { font-size: 9px; fill: #94a3b8; }
</style>
<defs>
    <!-- Arrowhead markers -->
    <marker id="arrow" markerWidth="8" markerHeight="8" refX="7" refY="4" orient="auto">
        <path d="M 1 1 L 7 4 L 1 7" fill="none" stroke="#94a3b8" stroke-width="1" stroke-linecap="round" stroke-linejoin="round"/>
    </marker>
    <marker id="inheritance" markerWidth="10" markerHeight="10" refX="9" refY="5" orient="auto">
        <path d="M 2 1 L 9 5 L 2 9 Z" fill="#0f111a" stroke="#94a3b8" stroke-width="1"/>
    </marker>
    <marker id="composition" markerWidth="12" markerHeight="12" refX="10" refY="6" orient="auto">
        <path d="M 2 6 L 6 2 L 10 6 L 6 10 Z" fill="#94a3b8" stroke="#94a3b8" stroke-width="1"/>
    </marker>
</defs>
<rect width="100%" height="100%" fill="#0f111a" stroke="#1e293b" stroke-width="1"/>
<text x="20" y="25" class="title">Diagram 7 — Package &amp; Component Diagram</text>
<rect x="30" y="55" width="80.0" height="15" fill="#1e293b" stroke="#475569" stroke-width="1" rx="0" ry="0" />
<text x="35" y="66" class="class-header">main</text>
<rect x="30" y="70" width="160" height="65" fill="#1e293b" stroke="#475569" stroke-width="1" rx="0" ry="0" />
<text x="40" y="95" class="">main.py</text>
<text x="40" y="112" class="stereotype">SplashScreen, BrowserWindow</text>
<rect x="240" y="55" width="90" height="15" fill="#1e293b" stroke="#475569" stroke-width="1" rx="0" ry="0" />
<text x="245" y="66" class="class-header">src.ui</text>
<rect x="240" y="70" width="410" height="105" fill="#1e293b" stroke="#475569" stroke-width="1" rx="0" ry="0" />
<text x="250" y="95" class="">BrowserWindow, TabManager, SplashScreen,</text>
<text x="250" y="112" class="">DownloadManager, ExtensionsDialog</text>
<rect x="30" y="185" width="90" height="15" fill="#1e293b" stroke="#475569" stroke-width="1" rx="0" ry="0" />
<text x="35" y="196" class="class-header">src.core</text>
<rect x="30" y="200" width="280" height="105" fill="#1e293b" stroke="#475569" stroke-width="1" rx="0" ry="0" />
<text x="40" y="225" class="">SettingsManager, BookmarksManager,</text>
<text x="40" y="242" class="">HistoryManager, ExtensionManager,</text>
<text x="40" y="259" class="">AdBlockerInterceptor</text>
<rect x="30" y="330" width="90" height="15" fill="#1e293b" stroke="#475569" stroke-width="1" rx="0" ry="0" />
<text x="35" y="341" class="class-header">src.ai_agent</text>
<rect x="30" y="345" width="280" height="105" fill="#1e293b" stroke="#475569" stroke-width="1" rx="0" ry="0" />
<text x="40" y="370" class="">AgentBrain, AgentWorker, ActionExecutor,</text>
<text x="40" y="387" class="">PageReader, ToolDefinitions, OllamaClient</text>
<rect x="345" y="185" width="90" height="15" fill="#1e293b" stroke="#475569" stroke-width="1" rx="0" ry="0" />
<text x="350" y="196" class="class-header">src.ai_assistant</text>
<rect x="345" y="200" width="305" height="105" fill="#1e293b" stroke="#475569" stroke-width="1" rx="0" ry="0" />
<text x="355" y="225" class="">FloatingBot, WorkerThread, ModelRouter,</text>
<text x="355" y="242" class="">SelectionWatcher, BrowserController,</text>
<text x="355" y="259" class="">ResponseRenderer, Client interfaces</text>
<rect x="345" y="330" width="70.0" height="15" fill="#1e293b" stroke="#475569" stroke-width="1" rx="0" ry="0" />
<text x="350" y="341" class="class-header">src.aiengine</text>
<rect x="345" y="345" width="140" height="65" fill="#1e293b" stroke="#475569" stroke-width="1" rx="0" ry="0" />
<text x="355" y="370" class="">AIEngine, Prompts</text>
<rect x="510" y="330" width="70.0" height="15" fill="#1e293b" stroke="#475569" stroke-width="1" rx="0" ry="0" />
<text x="515" y="341" class="class-header">src.utils</text>
<rect x="510" y="345" width="140" height="65" fill="#1e293b" stroke="#475569" stroke-width="1" rx="0" ry="0" />
<text x="520" y="370" class="">PathUtils, URLUtils,</text>
<text x="520" y="387" class="">ExceptionLogger</text>
<rect x="30" y="480" width="100" height="50" fill="#2d1010" stroke="#ef4444" stroke-width="1" rx="0" ry="0" stroke-dasharray="4,4" />
<text x="80.0" y="494" class="stereotype" text-anchor="middle">«external»</text>
<text x="80.0" y="512" class="class-header" text-anchor="middle">Ollama</text>
<rect x="160" y="480" width="110" height="50" fill="#2d1010" stroke="#ef4444" stroke-width="1" rx="0" ry="0" stroke-dasharray="4,4" />
<text x="215.0" y="494" class="stereotype" text-anchor="middle">«external»</text>
<text x="215.0" y="512" class="class-header" text-anchor="middle">Groq API</text>
<rect x="300" y="480" width="110" height="50" fill="#2d1010" stroke="#ef4444" stroke-width="1" rx="0" ry="0" stroke-dasharray="4,4" />
<text x="355.0" y="494" class="stereotype" text-anchor="middle">«external»</text>
<text x="355.0" y="512" class="class-header" text-anchor="middle">Gemini API</text>
<rect x="440" y="480" width="100" height="50" fill="#2d1010" stroke="#ef4444" stroke-width="1" rx="0" ry="0" stroke-dasharray="4,4" />
<text x="490.0" y="494" class="stereotype" text-anchor="middle">«external»</text>
<text x="490.0" y="512" class="class-header" text-anchor="middle">QWebEngine</text>
<rect x="560" y="480" width="90" height="50" fill="#2d1010" stroke="#ef4444" stroke-width="1" rx="0" ry="0" stroke-dasharray="4,4" />
<text x="605.0" y="494" class="stereotype" text-anchor="middle">«external»</text>
<text x="605.0" y="512" class="class-header" text-anchor="middle">File System</text>
<line x1="110" y1="135" x2="240" y2="135" stroke="#94a3b8" stroke-width="0.5" stroke-dasharray="4,4" marker-end="url(#arrow)" />
<line x1="340" y1="175" x2="200" y2="200" stroke="#94a3b8" stroke-width="0.5" stroke-dasharray="4,4" marker-end="url(#arrow)" />
<line x1="240" y1="160" x2="150" y2="345" stroke="#94a3b8" stroke-width="0.5" stroke-dasharray="4,4" marker-end="url(#arrow)" />
<line x1="445" y1="175" x2="445" y2="200" stroke="#94a3b8" stroke-width="0.5" stroke-dasharray="4,4" marker-end="url(#arrow)" />
<line x1="345" y1="252" x2="310" y2="252" stroke="#94a3b8" stroke-width="0.5" stroke-dasharray="4,4" marker-end="url(#arrow)" />
<line x1="500" y1="305" x2="215" y2="480" stroke="#94a3b8" stroke-width="0.5" stroke-dasharray="4,4" marker-end="url(#arrow)" />
<line x1="520" y1="305" x2="355" y2="480" stroke="#94a3b8" stroke-width="0.5" stroke-dasharray="4,4" marker-end="url(#arrow)" />
<line x1="480" y1="305" x2="80" y2="480" stroke="#94a3b8" stroke-width="0.5" stroke-dasharray="4,4" marker-end="url(#arrow)" />
<line x1="120" y1="450" x2="80" y2="480" stroke="#94a3b8" stroke-width="0.5" stroke-dasharray="4,4" marker-end="url(#arrow)" />
<line x1="500" y1="175" x2="490" y2="480" stroke="#94a3b8" stroke-width="0.5" stroke-dasharray="4,4" marker-end="url(#arrow)" />
<line x1="170" y1="305" x2="605" y2="480" stroke="#94a3b8" stroke-width="0.5" stroke-dasharray="4,4" marker-end="url(#arrow)" />
<line x1="580" y1="345" x2="520" y2="175" stroke="#94a3b8" stroke-width="0.5" stroke-dasharray="4,4" marker-end="url(#arrow)" />
<line x1="510" y1="370" x2="310" y2="275" stroke="#94a3b8" stroke-width="0.5" stroke-dasharray="4,4" marker-end="url(#arrow)" />
<line x1="580" y1="345" x2="510" y2="305" stroke="#94a3b8" stroke-width="0.5" stroke-dasharray="4,4" marker-end="url(#arrow)" />
</svg>